<svg width="204" height="31" fill="none" xmlns="http://www.w3.org/2000/svg"><path fill-rule="evenodd" clip-rule="evenodd" d="M15.5 29C22.956 29 29 22.956 29 15.5S22.956 2 15.5 2 2 8.044 2 15.5 8.044 29 15.5 29zm0 2C24.06 31 31 24.06 31 15.5 31 6.94 24.06 0 15.5 0 6.94 0 0 6.94 0 15.5 0 24.06 6.94 31 15.5 31zm-.555-10.854c-.976 0-1.732-.26-2.265-.78-.534-.528-.801-1.274-.801-2.237v-4.277c0-1.01.267-1.787.8-2.334.534-.554 1.29-.83 2.266-.83.983 0 1.742.276 2.276.83.54.553.81 1.337.81 2.353v.332h-1.836v-.332c0-.462-.107-.82-.322-1.074-.215-.254-.514-.381-.898-.381-.391 0-.697.127-.918.38-.215.248-.323.6-.323 1.056v4.277c0 .41.108.73.323.957.221.221.527.332.918.332.384 0 .683-.117.898-.352.221-.234.332-.56.332-.976v-.322h1.846v.322c0 .97-.27 1.722-.81 2.256-.541.534-1.306.8-2.296.8zm22.545 2.57c.495.287 1.09.43 1.787.43.703 0 1.3-.143 1.788-.43.494-.286.869-.7 1.123-1.24.26-.54.39-1.194.39-1.962v-.606h-1.875v.606c0 .58-.124 1.028-.371 1.347-.247.32-.599.479-1.055.479-.449 0-.8-.16-1.054-.479-.248-.319-.371-.768-.371-1.347v-7.217c0-.586.123-1.039.37-1.357.255-.32.606-.48 1.055-.48.306 0 .563.073.772.216.215.143.377.351.488.625.11.267.166.595.166.986v.606h1.875v-.606c0-.768-.13-1.422-.39-1.963a2.74 2.74 0 00-1.123-1.24c-.489-.286-1.084-.43-1.788-.43-.696 0-1.292.144-1.787.43-.488.286-.862.7-1.123 1.24-.26.54-.39 1.198-.39 1.973v7.217c0 .768.13 1.422.39 1.963.26.54.635.953 1.123 1.24zm7.52-.341c.514.514 1.233.771 2.158.771.924 0 1.637-.253 2.139-.761.5-.508.752-1.224.752-2.149v-4.658c0-.924-.251-1.637-.752-2.138-.502-.502-1.215-.752-2.139-.752-.925 0-1.644.25-2.158.752-.515.5-.772 1.214-.772 2.138v4.629c0 .931.257 1.654.772 2.168zm2.91-1.338c-.182.202-.44.303-.772.303-.325 0-.582-.101-.771-.303-.189-.208-.283-.501-.283-.879v-4.502c0-.364.094-.648.283-.85.189-.208.446-.312.771-.312.332 0 .59.104.772.313.189.201.283.485.283.85v4.501c0 .378-.094.67-.283.88zm4.092-8.174v14.258h1.855v-5.31c.151.364.36.66.625.886.358.3.775.45 1.25.45.755 0 1.338-.287 1.748-.86.41-.573.615-1.38.615-2.422V15.91c0-1.028-.198-1.823-.595-2.383-.39-.56-.95-.84-1.68-.84-.456 0-.879.16-1.27.479a2.696 2.696 0 00-.693.893v-1.196h-1.855zm1.855 3.086v3.887c0 .338.046.628.137.87.098.24.234.425.41.556.182.123.397.185.645.185.37 0 .66-.143.869-.43.215-.292.322-.7.322-1.22v-3.809c0-.501-.107-.892-.322-1.172-.209-.286-.498-.43-.87-.43a1.12 1.12 0 00-.644.186 1.2 1.2 0 00-.41.537 2.27 2.27 0 00-.137.84zm12.041-3.086h-1.875l-1.488 6.78-1.686-6.78h-1.875l2.852 10.012-.313 1.424c-.084.39-.254.683-.507.879-.248.195-.603.293-1.065.293h-.273v1.758h.273c.834 0 1.488-.157 1.963-.47.482-.305.798-.768.947-1.386l3.047-12.51zm1.28 0V23h1.855v-6.387c.013-.638.231-1.142.654-1.513.43-.371 1.022-.557 1.778-.557h.351v-1.855c-.631 0-1.207.172-1.728.517a3.769 3.769 0 00-1.055 1.08v-1.422h-1.856zm6.23-3.935v1.855h1.855V8.928h-1.855zm0 3.935V23h1.855V12.863h-1.855zm3.984-4.062V23h1.856v-6.992c0-.534.1-.931.303-1.192.208-.267.52-.4.937-.4.417 0 .726.127.928.38.208.255.312.642.312 1.163V23h1.856v-7.578c0-.886-.192-1.563-.576-2.031-.378-.47-.925-.704-1.641-.704-.508 0-.964.154-1.367.46-.297.224-.547.54-.752.947V8.8h-1.856zm9.15 13.554c.378.463.987.694 1.827.694h.957V21.29h-.742c-.241 0-.427-.081-.557-.244-.124-.163-.185-.39-.185-.684V14.62h1.484v-1.758h-1.484V9.914h-1.856v2.95h-1.035v1.757h1.035v5.742c0 .866.186 1.53.557 1.992zm8.253-.947V23h6.347v-1.758h-4.013l2.685-4.931c.456-.834.794-1.608 1.016-2.325.221-.716.332-1.35.332-1.904v-.02c0-1.126-.27-1.975-.811-2.548-.54-.573-1.344-.86-2.412-.86-1.061 0-1.865.342-2.412 1.026-.54.677-.81 1.68-.81 3.008v.039h1.904v-.04c0-.735.12-1.289.361-1.66.241-.377.6-.566 1.074-.566.397 0 .697.133.899.4.202.267.303.661.303 1.182v.03c0 .468-.108 1.012-.323 1.63-.214.619-.533 1.302-.957 2.05l-3.183 5.655zm8.955.889c.553.566 1.334.85 2.344.85 1.009 0 1.79-.284 2.343-.85.554-.567.83-1.367.83-2.402v-7.989c0-1.035-.276-1.836-.83-2.402-.553-.566-1.334-.85-2.343-.85-1.01 0-1.791.284-2.344.85-.554.566-.83 1.367-.83 2.402v7.989c0 1.035.276 1.835.83 2.402zm3.31-1.299c-.228.26-.55.39-.966.39-.417 0-.743-.13-.977-.39-.228-.26-.342-.628-.342-1.104v-7.988c0-.475.114-.843.342-1.103.234-.26.56-.39.977-.39.416 0 .738.13.966.39.235.26.352.628.352 1.103v7.989c0 .475-.117.843-.352 1.103zm4.043.41V23h6.348v-1.758h-4.014l2.686-4.931c.456-.834.794-1.608 1.015-2.325.222-.716.332-1.35.332-1.904v-.02c0-1.126-.27-1.975-.81-2.548s-1.344-.86-2.412-.86c-1.061 0-1.865.342-2.412 1.026-.541.677-.811 1.68-.811 3.008v.039h1.904v-.04c0-.735.121-1.289.362-1.66.241-.377.599-.566 1.074-.566.397 0 .697.133.898.4.202.267.303.661.303 1.182v.03c0 .468-.107 1.012-.322 1.63-.215.619-.534 1.302-.957 2.05l-3.184 5.655zm9.239 1.397c.488.228 1.08.341 1.777.341 1.016 0 1.8-.273 2.353-.82.56-.547.84-1.318.84-2.314V18c0-.58-.13-1.078-.39-1.494a2.18 2.18 0 00-1.075-.918c.391-.3.694-.625.909-.977.214-.358.322-.706.322-1.045v-1.992c0-.93-.251-1.65-.752-2.158s-1.208-.762-2.119-.762c-.996 0-1.768.254-2.315.762-.547.501-.82 1.217-.82 2.149v1.171h1.856v-1.133c0-.364.104-.644.312-.84.208-.201.498-.302.869-.302.352 0 .625.098.82.293.196.195.293.475.293.84v1.953c0 .377-.081.67-.244.879-.162.208-.387.312-.674.312h-.996v1.758h.996c.365 0 .648.13.85.39.202.261.303.632.303 1.114v1.963c0 .436-.117.775-.352 1.015-.234.241-.563.362-.986.362-.443 0-.791-.108-1.045-.322-.247-.222-.371-.528-.371-.918v-1.036h-1.865v1.172c0 .619.127 1.146.381 1.582.26.43.634.759 1.123.987zm20.925.341c-.696 0-1.292-.143-1.787-.43a2.818 2.818 0 01-1.123-1.24c-.26-.54-.39-1.194-.39-1.962v-7.217c0-.775.13-1.432.39-1.973.261-.54.635-.954 1.123-1.24.495-.286 1.091-.43 1.787-.43.703 0 1.299.144 1.787.43.495.286.87.7 1.124 1.24.26.54.39 1.195.39 1.963v.606h-1.875v-.606c0-.39-.055-.72-.166-.986a1.321 1.321 0 00-.488-.625c-.209-.143-.466-.215-.772-.215-.449 0-.8.16-1.054.479-.248.319-.371.77-.371 1.357v7.217c0 .58.123 1.028.371 1.347.254.32.605.479 1.054.479.456 0 .808-.16 1.055-.479.247-.319.371-.768.371-1.347v-.606h1.875v.606c0 .768-.13 1.422-.39 1.963a2.74 2.74 0 01-1.124 1.24c-.488.286-1.084.43-1.787.43zm9.297-.146v-1.192c-.167.391-.378.698-.635.919-.332.28-.745.42-1.24.42-.748 0-1.315-.241-1.699-.723-.378-.482-.566-1.188-.566-2.12v-7.44h1.855v7.363c0 .364.098.64.293.83.195.188.482.283.859.283.385 0 .668-.098.85-.293.189-.195.283-.482.283-.86v-7.324h1.856V23h-1.856zm4.004 4.121V12.863h1.856v1.197c.188-.373.419-.67.693-.894.391-.319.814-.479 1.269-.479.73 0 1.29.28 1.68.84.397.56.596 1.355.596 2.383v3.955c0 1.042-.205 1.85-.615 2.422-.411.573-.993.86-1.748.86-.476 0-.892-.15-1.25-.45a2.3 2.3 0 01-.625-.885v5.31h-1.856zm1.856-7.285v-3.887c0-.332.045-.612.136-.84a1.21 1.21 0 01.41-.537c.183-.123.398-.185.645-.185.371 0 .661.143.869.43.215.28.322.67.322 1.171v3.809c0 .52-.107.928-.322 1.22-.208.287-.498.43-.869.43-.247 0-.462-.062-.645-.185a1.27 1.27 0 01-.41-.557 2.465 2.465 0 01-.136-.87zm6.191-2.803h5v1.758h-5v-1.758zm10.41 6.113c-.742 0-1.37-.127-1.885-.38a2.66 2.66 0 01-1.171-1.133c-.267-.502-.401-1.11-.401-1.826v-.703h1.856v.634c0 .515.136.912.41 1.192.28.273.677.41 1.191.41.501 0 .886-.137 1.153-.41.266-.28.4-.677.4-1.192v-1.24c0-.384-.098-.693-.293-.928a2.406 2.406 0 00-.742-.615c-.306-.17-.635-.332-.987-.488a15.76 15.76 0 01-1.054-.518 4.93 4.93 0 01-.957-.683 3.025 3.025 0 01-.703-1.006c-.176-.404-.264-.902-.264-1.494v-.82c0-1.062.296-1.876.889-2.442.592-.566 1.442-.85 2.548-.85 1.081 0 1.908.29 2.481.87.573.572.859 1.393.859 2.46v.743h-1.855v-.665c0-.52-.127-.917-.381-1.19-.254-.274-.622-.411-1.104-.411-.514 0-.908.13-1.181.39-.267.261-.401.632-.401 1.114v.889c0 .416.105.752.313 1.005.208.248.478.456.81.625.339.163.694.33 1.065.498.332.15.661.31.986.479.332.163.635.368.908.615.28.241.502.557.664.947.17.391.254.886.254 1.485v1.299c0 1.074-.293 1.9-.879 2.48-.585.573-1.429.86-2.529.86zm8.008-.097c-.84 0-1.449-.231-1.826-.694-.371-.462-.557-1.126-.557-1.992v-5.742h-1.035v-1.758h1.035V9.914h1.856v2.95H182v1.757h-1.484v5.742c0 .293.061.521.185.684.13.163.316.244.557.244H182v1.758h-.957zm5.352.098c-.925 0-1.644-.258-2.159-.772-.514-.514-.771-1.237-.771-2.168v-4.629c0-.924.257-1.637.771-2.138.515-.502 1.234-.752 2.159-.752.924 0 1.637.25 2.138.752.502.5.752 1.214.752 2.138v4.658c0 .925-.25 1.641-.752 2.149-.501.508-1.214.761-2.138.761zm-.02-1.807c.332 0 .589-.101.771-.303.189-.208.284-.501.284-.879v-4.502c0-.364-.095-.648-.284-.85-.182-.208-.439-.312-.771-.312-.326 0-.583.104-.771.313-.189.201-.284.485-.284.85v4.501c0 .378.095.67.284.88.188.2.445.302.771.302zm4.863 1.66V12.863h1.856v1.423a3.77 3.77 0 011.054-1.08 3.064 3.064 0 011.729-.518v1.855h-.352c-.755 0-1.347.186-1.777.557-.423.37-.641.875-.654 1.513V23h-1.856zm8.946.146c-.977 0-1.735-.293-2.276-.878-.54-.586-.81-1.413-.81-2.48v-3.546c0-1.133.263-2.008.791-2.627.527-.618 1.266-.928 2.216-.928.971 0 1.719.287 2.247.86.527.573.791 1.383.791 2.431v2.676h-4.268v1.182c0 .495.114.882.342 1.162.228.273.55.41.967.41.384 0 .68-.1.888-.303.215-.208.323-.5.323-.878v-.069h1.777v.069c0 .924-.261 1.643-.781 2.158-.521.508-1.257.761-2.207.761zm-1.309-7.011v.986h2.49v-1.103c0-.528-.11-.935-.332-1.221-.215-.287-.524-.43-.928-.43-.39 0-.693.153-.908.46-.215.305-.322.741-.322 1.308zM131 0v31h2V0h-2z" fill="#FFEED3"/></svg>