<svg width="78" height="88" viewBox="0 0 78 88" fill="none" xmlns="http://www.w3.org/2000/svg">
<g clip-path="url(#clip0_208_484)">
<path fill-rule="evenodd" clip-rule="evenodd" d="M44 4.00279L51.1773 4.00225L54.0663 8.00354H15.9242L18.8112 4.00509L44 4.00217V4.00279ZM63 8.00354H58.9999L53.2294 0.0113411V0.00209165L53.2227 0.00209216L53.2212 0L53.2183 0.00209249L48.9998 0.0024108V0.00158691L16.7734 0.00532138V0.0112613L16.7634 0.00407248L10.9877 8.00354H7V12.0035H63V8.00354ZM65.0022 16.0035H5.0022V19.9996L5 20.0002L20.3009 76.0035H20.292L21.3848 80.0035H48.6068L49.0023 78.5563V78.5505L56.2545 52.0062L70.8414 52.0037V51.9944L78.4314 24.0035H77.3462V24.0019L59.7561 24.005V24.0145L59.7541 24.014L45.5498 76.0035H24.4438L9.14387 20.0035H65.0022V16.0035ZM73.1987 28.0027L62.8121 28.0045L57.3474 48.006L67.7751 48.0042L73.1987 28.0027ZM30.6986 68.0035H39.2904L51.3118 24.0035H55.4548L42.3405 72.0036H38.1975H31.7914H27.6485L14.5342 24.0035H18.6771L30.6986 68.0035ZM49 84H21V88H49V84Z" fill="#FFEED3"/>
</g>
<defs>
<clipPath id="clip0_208_484">
<rect width="78" height="88" fill="white"/>
</clipPath>
</defs>
</svg>
