<svg width="78" height="88" fill="none" xmlns="http://www.w3.org/2000/svg"><g clip-path="url(#clip0_250_420)"><path d="M14.531 24h40.97L42.34 72h-14.7L14.531 24z" fill="#114425"/><path fill-rule="evenodd" clip-rule="evenodd" d="M44 4.003h7.177l2.89 4H15.923l2.887-3.998L44 4.002zm19 4h-4L53.23.012v-.01h-.007L53.22 0l-.003.002H49L16.773.005v.006l-.01-.007-5.775 8H7v4h56v-4zm-57.998 8h60v4H9.144l15.3 56H45.55l14.204-51.989h.002v-.009l17.59-.003v.002h1.085l-7.59 27.99v.01l-14.586.002-7.253 26.544v.006l-.395 1.448H21.385l-1.093-4h.009L5 20h.002v-3.997zm62.773 32.001L73.2 28.003l-10.387.002-5.465 20.001 10.428-.002zM49 84H21v4h28v-4z" fill="#000"/></g><defs><clipPath id="clip0_250_420"><path fill="#fff" d="M0 0h78v88H0z"/></clipPath></defs></svg>