<svg width="47" height="46" fill="none" xmlns="http://www.w3.org/2000/svg"><path fill-rule="evenodd" clip-rule="evenodd" d="M7.108.787l1.41 1.42 9.463 9.535 1.41 1.42-1.42 1.409-5.39 5.35a19.97 19.97 0 004.277 7.302h.008a19.962 19.962 0 008.123 5.343 19.984 19.984 0 002.241.639l4.802-5.884 1.264-1.55 1.55 1.265 10.408 8.495 1.55 1.265-1.265 1.55c-2.76 3.38-4.88 5.13-6.966 5.985-1.547.634-3.089.726-4.336.801h-.007l-.98.038v-.002a31.5 31.5 0 01-12.851-2.004A31.5 31.5 0 01.09 15.09H.088l-.058-.98v-.006c-.046-1.249-.104-2.792.377-4.393.649-2.16 2.184-4.44 5.282-7.514l1.42-1.41zm14.704 38.635A27.502 27.502 0 017.675 27.32h-.01A27.503 27.503 0 014.12 15.51l-.043-.405h-.005l-.004-1.167h-.001l.046-1.881.01-.75.004-.015h.005v-.002h-.005c.03-.139.067-.28.112-.43.3-.995 1.014-2.328 2.882-4.382l6.613 6.663-2.086 2.07-.002-.02-3.542 3.45a23.967 23.967 0 0014.965 17.482 23.966 23.966 0 005.87 1.414l3.09-3.86h-.021l1.859-2.277 7.273 5.936c-1.863 2.058-3.12 2.9-4.083 3.294a5.764 5.764 0 01-.416.152v-.004h-.003v.005l-.014.005-.745.083-1.868.228-1.162.108v-.005l-.409-.003a27.478 27.478 0 01-7.48-.793v-.002a27.494 27.494 0 01-3.147-.982z" fill="#FFEED3"/></svg>