<svg width="63" height="52" fill="none" xmlns="http://www.w3.org/2000/svg"><path fill-rule="evenodd" clip-rule="evenodd" d="M22.83 19.399a10.695 10.695 0 01-1.062-4.662C21.768 8.807 26.575 4 32.505 4c5.049 0 9.284 3.485 10.43 8.18.37-.12.747-.225 1.131-.31a12.463 12.463 0 013.008-.275c6.825.202 12.148 5.852 11.95 12.563-.148 4.985-3.301 9.204-7.71 10.963v4.226c6.594-1.92 11.495-7.878 11.708-15.07.264-8.946-6.823-16.414-15.83-16.68a16.61 16.61 0 00-1.77.041A14.731 14.731 0 0032.505 0C24.38 0 17.79 6.575 17.768 14.694a12.298 12.298 0 00-9.202-.678C2.13 16.065-1.454 22.856.561 29.183c1.957 6.148 8.48 9.597 14.753 7.907v-3.55l-3.428-.021v-.002c-3.405-.083-6.467-2.262-7.514-5.548-1.325-4.161 1.016-8.744 5.408-10.142 3.754-1.195 7.629.373 9.504 3.452a10.16 10.16 0 013.25-1.794c.098-.03.197-.059.296-.086zm7.623 3.76L33.037 20l2.583 3.159L44.487 34l3.272 4h-5.197L35 28.473V52h-4V28.566L23.51 38h-5.196l3.272-4 8.867-10.841z" fill="#000"/></svg>