<svg width="48" height="48" viewBox="0 0 48 48" fill="none" xmlns="http://www.w3.org/2000/svg">
<path fill-rule="evenodd" clip-rule="evenodd" d="M38.2829 38C34.653 41.7027 29.5948 44 24 44C12.9543 44 4 35.0457 4 24C4 12.9543 12.9543 4 24 4C29.5948 4 34.653 6.29728 38.2829 10H43.4958C39.1391 3.94373 32.0301 0 24 0C10.7452 0 0 10.7452 0 24C0 37.2548 10.7452 48 24 48C32.0301 48 39.1391 44.0563 43.4958 38H38.2829ZM34 26V36H38V26H48V22H38V12H34V22H24V26H34ZM18 15.1111V34H13V38H27V34H22V10H22V9V8H18.2061L12 14.8268V20.7732L18 14.1732V15.1111H18Z" fill="black"/>
</svg>
