<svg width="204" height="31" viewBox="0 0 204 31" fill="none" xmlns="http://www.w3.org/2000/svg">
<path id="copyright" fill-rule="evenodd" clip-rule="evenodd" d="M15.5 29C22.9558 29 29 22.9558 29 15.5C29 8.04416 22.9558 2 15.5 2C8.04416 2 2 8.04416 2 15.5C2 22.9558 8.04416 29 15.5 29ZM15.5 31C24.0604 31 31 24.0604 31 15.5C31 6.93959 24.0604 0 15.5 0C6.93959 0 0 6.93959 0 15.5C0 24.0604 6.93959 31 15.5 31ZM14.9453 20.1465C13.9688 20.1465 13.2135 19.8861 12.6797 19.3652C12.1458 18.8379 11.8789 18.0924 11.8789 17.1289V12.8516C11.8789 11.8424 12.1458 11.0645 12.6797 10.5176C13.2135 9.96419 13.9688 9.6875 14.9453 9.6875C15.9284 9.6875 16.6868 9.96419 17.2207 10.5176C17.7611 11.071 18.0312 11.8555 18.0312 12.8711V13.2031H16.1953V12.8711C16.1953 12.4089 16.0879 12.0508 15.873 11.7969C15.6582 11.543 15.3587 11.416 14.9746 11.416C14.584 11.416 14.278 11.543 14.0566 11.7969C13.8418 12.0443 13.7344 12.3958 13.7344 12.8516V17.1289C13.7344 17.5391 13.8418 17.8581 14.0566 18.0859C14.278 18.3073 14.584 18.418 14.9746 18.418C15.3587 18.418 15.6582 18.3008 15.873 18.0664C16.0944 17.832 16.2051 17.5065 16.2051 17.0898V16.7676H18.0508V17.0898C18.0508 18.0599 17.7806 18.8118 17.2402 19.3457C16.6999 19.8796 15.9349 20.1465 14.9453 20.1465ZM37.4902 22.7168C37.985 23.0033 38.5807 23.1465 39.2773 23.1465C39.9805 23.1465 40.5762 23.0033 41.0645 22.7168C41.5592 22.4303 41.9336 22.0169 42.1875 21.4766C42.4479 20.9362 42.5781 20.2819 42.5781 19.5137V18.9082H40.7031V19.5137C40.7031 20.0931 40.5794 20.5423 40.332 20.8613C40.0846 21.1803 39.7331 21.3398 39.2773 21.3398C38.8281 21.3398 38.4766 21.1803 38.2227 20.8613C37.9753 20.5423 37.8516 20.0931 37.8516 19.5137V12.2969C37.8516 11.7109 37.9753 11.2585 38.2227 10.9395C38.4766 10.6204 38.8281 10.4609 39.2773 10.4609C39.5833 10.4609 39.8405 10.5326 40.0488 10.6758C40.2637 10.819 40.4264 11.0273 40.5371 11.3008C40.6478 11.5677 40.7031 11.8965 40.7031 12.2871V12.8926H42.5781V12.2871C42.5781 11.5189 42.4479 10.8646 42.1875 10.3242C41.9336 9.78385 41.5592 9.37044 41.0645 9.08398C40.5762 8.79753 39.9805 8.6543 39.2773 8.6543C38.5807 8.6543 37.985 8.79753 37.4902 9.08398C37.002 9.37044 36.6276 9.78385 36.3672 10.3242C36.1068 10.8646 35.9766 11.5221 35.9766 12.2969V19.5137C35.9766 20.2819 36.1068 20.9362 36.3672 21.4766C36.6276 22.0169 37.002 22.4303 37.4902 22.7168ZM45.0098 22.375C45.5241 22.8893 46.2435 23.1465 47.168 23.1465C48.0924 23.1465 48.8053 22.8926 49.3066 22.3848C49.8079 21.877 50.0586 21.1608 50.0586 20.2363V15.5781C50.0586 14.6536 49.8079 13.9408 49.3066 13.4395C48.8053 12.9382 48.0924 12.6875 47.168 12.6875C46.2435 12.6875 45.5241 12.9382 45.0098 13.4395C44.4954 13.9408 44.2383 14.6536 44.2383 15.5781V20.207C44.2383 21.138 44.4954 21.8607 45.0098 22.375ZM47.9199 21.0371C47.7376 21.2389 47.4805 21.3398 47.1484 21.3398C46.8229 21.3398 46.5658 21.2389 46.377 21.0371C46.1882 20.8288 46.0938 20.5358 46.0938 20.1582V15.6562C46.0938 15.2917 46.1882 15.0085 46.377 14.8066C46.5658 14.5983 46.8229 14.4941 47.1484 14.4941C47.4805 14.4941 47.7376 14.5983 47.9199 14.8066C48.1087 15.0085 48.2031 15.2917 48.2031 15.6562V20.1582C48.2031 20.5358 48.1087 20.8288 47.9199 21.0371ZM52.0117 12.8633V27.1211H53.8672V21.8119C54.0182 22.1751 54.2265 22.4702 54.4922 22.6973C54.8503 22.9967 55.2669 23.1465 55.7422 23.1465C56.4974 23.1465 57.0801 22.86 57.4902 22.2871C57.9004 21.7142 58.1055 20.9069 58.1055 19.8652V15.9102C58.1055 14.8815 57.9069 14.0872 57.5098 13.5273C57.1191 12.9674 56.5592 12.6875 55.8301 12.6875C55.3743 12.6875 54.9512 12.847 54.5605 13.166C54.2863 13.3892 54.0552 13.687 53.8672 14.0595V12.8633H52.0117ZM53.8672 15.9492V19.8359C53.8672 20.1745 53.9128 20.4642 54.0039 20.7051C54.1016 20.946 54.2383 21.1315 54.4141 21.2617C54.5964 21.3854 54.8112 21.4473 55.0586 21.4473C55.4297 21.4473 55.7194 21.304 55.9277 21.0176C56.1426 20.7246 56.25 20.3177 56.25 19.7969V15.9883C56.25 15.487 56.1426 15.0964 55.9277 14.8164C55.7194 14.5299 55.4297 14.3867 55.0586 14.3867C54.8112 14.3867 54.5964 14.4486 54.4141 14.5723C54.2383 14.696 54.1016 14.875 54.0039 15.1094C53.9128 15.3372 53.8672 15.6172 53.8672 15.9492ZM65.9082 12.8633H64.0332L62.5451 19.6439L60.8594 12.8633H58.9844L61.8359 22.875L61.5234 24.2988C61.4388 24.6895 61.2695 24.9824 61.0156 25.1777C60.7682 25.373 60.4134 25.4707 59.9512 25.4707H59.6777V27.2285H59.9512C60.7845 27.2285 61.4388 27.0723 61.9141 26.7598C62.3958 26.4538 62.7116 25.9915 62.8613 25.373L65.9082 12.8633ZM67.1875 12.8633V23H69.043V16.6133C69.056 15.9753 69.2741 15.4707 69.6973 15.0996C70.127 14.7285 70.7194 14.543 71.4746 14.543H71.6797H71.8262V12.6875C71.1947 12.6875 70.6185 12.86 70.0977 13.2051C69.6855 13.4816 69.3339 13.8418 69.043 14.2856V12.8633H67.1875ZM73.418 8.92773V10.7832H75.2734V8.92773H73.418ZM73.418 12.8633V23H75.2734V12.8633H73.418ZM77.4023 8.80078V23H79.2578V16.0078C79.2578 15.474 79.3587 15.0768 79.5605 14.8164C79.7689 14.5495 80.0814 14.416 80.498 14.416C80.9147 14.416 81.224 14.543 81.4258 14.7969C81.6341 15.0508 81.7383 15.4382 81.7383 15.959V23H83.5938V15.4219C83.5938 14.5365 83.4017 13.8594 83.0176 13.3906C82.64 12.9219 82.0931 12.6875 81.377 12.6875C80.8691 12.6875 80.4134 12.8405 80.0098 13.1465C79.7135 13.3711 79.4629 13.6868 79.2578 14.0937V8.80078H77.4023ZM86.5527 22.3555C86.9303 22.8177 87.5391 23.0488 88.3789 23.0488H89.3359V21.291H88.5938C88.3529 21.291 88.1673 21.2096 88.0371 21.0469C87.9134 20.8841 87.8516 20.6562 87.8516 20.3633V14.6211H89.3359V12.8633H87.8516V9.91406H85.9961V12.8633H84.9609V14.6211H85.9961V20.3633C85.9961 21.2292 86.1816 21.8932 86.5527 22.3555ZM94.8047 21.4082V23H101.152V21.2422H97.1387L99.8242 16.3105C100.28 15.4772 100.618 14.7025 100.84 13.9863C101.061 13.2702 101.172 12.6354 101.172 12.082V12.0625C101.172 10.9362 100.902 10.0866 100.361 9.51367C99.821 8.94075 99.0169 8.6543 97.9492 8.6543C96.888 8.6543 96.084 8.99609 95.5371 9.67969C94.9967 10.3568 94.7266 11.3594 94.7266 12.6875V12.7266H96.6309V12.6875C96.6309 11.9518 96.7513 11.3984 96.9922 11.0273C97.2331 10.6497 97.5911 10.4609 98.0664 10.4609C98.4635 10.4609 98.763 10.5944 98.9648 10.8613C99.1667 11.1283 99.2676 11.5221 99.2676 12.043V12.0723C99.2676 12.541 99.1602 13.0846 98.9453 13.7031C98.7305 14.3216 98.4115 15.0052 97.9883 15.7539L94.8047 21.4082ZM103.76 22.2969C104.313 22.8633 105.094 23.1465 106.104 23.1465C107.113 23.1465 107.894 22.8633 108.447 22.2969C109.001 21.7305 109.277 20.9297 109.277 19.8945V11.9062C109.277 10.8711 109.001 10.0703 108.447 9.50391C107.894 8.9375 107.113 8.6543 106.104 8.6543C105.094 8.6543 104.313 8.9375 103.76 9.50391C103.206 10.0703 102.93 10.8711 102.93 11.9062V19.8945C102.93 20.9297 103.206 21.7305 103.76 22.2969ZM107.07 20.998C106.842 21.2585 106.52 21.3887 106.104 21.3887C105.687 21.3887 105.361 21.2585 105.127 20.998C104.899 20.7376 104.785 20.3698 104.785 19.8945V11.9062C104.785 11.431 104.899 11.0632 105.127 10.8027C105.361 10.5423 105.687 10.4121 106.104 10.4121C106.52 10.4121 106.842 10.5423 107.07 10.8027C107.305 11.0632 107.422 11.431 107.422 11.9062V19.8945C107.422 20.3698 107.305 20.7376 107.07 20.998ZM111.113 21.4082V23H117.461V21.2422H113.447L116.133 16.3105C116.589 15.4772 116.927 14.7025 117.148 13.9863C117.37 13.2702 117.48 12.6354 117.48 12.082V12.0625C117.48 10.9362 117.21 10.0866 116.67 9.51367C116.13 8.94075 115.326 8.6543 114.258 8.6543C113.197 8.6543 112.393 8.99609 111.846 9.67969C111.305 10.3568 111.035 11.3594 111.035 12.6875V12.7266H112.939V12.6875C112.939 11.9518 113.06 11.3984 113.301 11.0273C113.542 10.6497 113.9 10.4609 114.375 10.4609C114.772 10.4609 115.072 10.5944 115.273 10.8613C115.475 11.1283 115.576 11.5221 115.576 12.043V12.0723C115.576 12.541 115.469 13.0846 115.254 13.7031C115.039 14.3216 114.72 15.0052 114.297 15.7539L111.113 21.4082ZM120.352 22.8047C120.84 23.0326 121.432 23.1465 122.129 23.1465C123.145 23.1465 123.929 22.873 124.482 22.3262C125.042 21.7793 125.322 21.0078 125.322 20.0117V18C125.322 17.4206 125.192 16.9225 124.932 16.5059C124.678 16.0827 124.32 15.7767 123.857 15.5879C124.248 15.2884 124.551 14.9629 124.766 14.6113C124.98 14.2533 125.088 13.9049 125.088 13.5664V11.5742C125.088 10.6432 124.837 9.92383 124.336 9.41602C123.835 8.9082 123.128 8.6543 122.217 8.6543C121.221 8.6543 120.449 8.9082 119.902 9.41602C119.355 9.91732 119.082 10.6335 119.082 11.5645V12.7363H120.938V11.6035C120.938 11.2389 121.042 10.959 121.25 10.7637C121.458 10.5618 121.748 10.4609 122.119 10.4609C122.471 10.4609 122.744 10.5586 122.939 10.7539C123.135 10.9492 123.232 11.2292 123.232 11.5938V13.5469C123.232 13.9245 123.151 14.2174 122.988 14.4258C122.826 14.6341 122.601 14.7383 122.314 14.7383H121.318V16.4961H122.314C122.679 16.4961 122.962 16.6263 123.164 16.8867C123.366 17.1471 123.467 17.5182 123.467 18V19.9629C123.467 20.3991 123.35 20.7376 123.115 20.9785C122.881 21.2194 122.552 21.3398 122.129 21.3398C121.686 21.3398 121.338 21.2324 121.084 21.0176C120.837 20.7962 120.713 20.4902 120.713 20.0996V19.0645H118.848V20.2363C118.848 20.8548 118.975 21.3822 119.229 21.8184C119.489 22.248 119.863 22.5768 120.352 22.8047ZM141.277 23.1465C140.581 23.1465 139.985 23.0033 139.49 22.7168C139.002 22.4303 138.628 22.0169 138.367 21.4766C138.107 20.9362 137.977 20.2819 137.977 19.5137V12.2969C137.977 11.5221 138.107 10.8646 138.367 10.3242C138.628 9.78385 139.002 9.37044 139.49 9.08398C139.985 8.79753 140.581 8.6543 141.277 8.6543C141.98 8.6543 142.576 8.79753 143.064 9.08398C143.559 9.37044 143.934 9.78385 144.188 10.3242C144.448 10.8646 144.578 11.5189 144.578 12.2871V12.8926H142.703V12.2871C142.703 11.8965 142.648 11.5677 142.537 11.3008C142.426 11.0273 142.264 10.819 142.049 10.6758C141.84 10.5326 141.583 10.4609 141.277 10.4609C140.828 10.4609 140.477 10.6204 140.223 10.9395C139.975 11.2585 139.852 11.7109 139.852 12.2969V19.5137C139.852 20.0931 139.975 20.5423 140.223 20.8613C140.477 21.1803 140.828 21.3398 141.277 21.3398C141.733 21.3398 142.085 21.1803 142.332 20.8613C142.579 20.5423 142.703 20.0931 142.703 19.5137V18.9082H144.578V19.5137C144.578 20.2819 144.448 20.9362 144.188 21.4766C143.934 22.0169 143.559 22.4303 143.064 22.7168C142.576 23.0033 141.98 23.1465 141.277 23.1465ZM150.574 23V21.8079C150.407 22.1993 150.196 22.5056 149.939 22.7266C149.607 23.0065 149.194 23.1465 148.699 23.1465C147.951 23.1465 147.384 22.9056 147 22.4238C146.622 21.9421 146.434 21.2357 146.434 20.3047V12.8633H148.289V20.2266C148.289 20.5911 148.387 20.8678 148.582 21.0566C148.777 21.2454 149.064 21.3398 149.441 21.3398C149.826 21.3398 150.109 21.2422 150.291 21.0469C150.48 20.8516 150.574 20.5651 150.574 20.1875V12.8633H152.43V23H150.574ZM154.578 27.1211V12.8633H156.434V14.0595C156.622 13.687 156.853 13.3892 157.127 13.166C157.518 12.847 157.941 12.6875 158.396 12.6875C159.126 12.6875 159.686 12.9674 160.076 13.5273C160.473 14.0872 160.672 14.8815 160.672 15.9102V19.8652C160.672 20.9069 160.467 21.7142 160.057 22.2871C159.646 22.86 159.064 23.1465 158.309 23.1465C157.833 23.1465 157.417 22.9967 157.059 22.6973C156.793 22.4702 156.585 22.1751 156.434 21.8119V27.1211H154.578ZM156.434 19.8359V15.9492C156.434 15.6172 156.479 15.3372 156.57 15.1094C156.668 14.875 156.805 14.696 156.98 14.5723C157.163 14.4486 157.378 14.3867 157.625 14.3867C157.996 14.3867 158.286 14.5299 158.494 14.8164C158.709 15.0964 158.816 15.487 158.816 15.9883V19.7969C158.816 20.3177 158.709 20.7246 158.494 21.0176C158.286 21.304 157.996 21.4473 157.625 21.4473C157.378 21.4473 157.163 21.3854 156.98 21.2617C156.805 21.1315 156.668 20.946 156.57 20.7051C156.479 20.4642 156.434 20.1745 156.434 19.8359ZM162.625 17.0332H167.625V18.791H162.625V17.0332ZM173.035 23.1465C172.293 23.1465 171.665 23.0195 171.15 22.7656C170.636 22.5052 170.245 22.1276 169.979 21.6328C169.712 21.1315 169.578 20.5228 169.578 19.8066V19.1035H171.434V19.7383C171.434 20.2526 171.57 20.6497 171.844 20.9297C172.124 21.2031 172.521 21.3398 173.035 21.3398C173.536 21.3398 173.921 21.2031 174.188 20.9297C174.454 20.6497 174.588 20.2526 174.588 19.7383V18.498C174.588 18.1139 174.49 17.8047 174.295 17.5703C174.106 17.3294 173.859 17.1243 173.553 16.9551C173.247 16.7858 172.918 16.623 172.566 16.4668C172.215 16.3105 171.863 16.138 171.512 15.9492C171.167 15.7604 170.848 15.5326 170.555 15.2656C170.262 14.9922 170.027 14.6569 169.852 14.2598C169.676 13.8561 169.588 13.3581 169.588 12.7656V11.9453C169.588 10.8841 169.884 10.0703 170.477 9.50391C171.069 8.9375 171.919 8.6543 173.025 8.6543C174.106 8.6543 174.933 8.94401 175.506 9.52344C176.079 10.0964 176.365 10.9167 176.365 11.9844V12.7266H174.51V12.0625C174.51 11.5417 174.383 11.1445 174.129 10.8711C173.875 10.5977 173.507 10.4609 173.025 10.4609C172.511 10.4609 172.117 10.5911 171.844 10.8516C171.577 11.112 171.443 11.4831 171.443 11.9648V12.8535C171.443 13.2702 171.548 13.6055 171.756 13.8594C171.964 14.1068 172.234 14.3151 172.566 14.4844C172.905 14.6471 173.26 14.8132 173.631 14.9824C173.963 15.1322 174.292 15.2917 174.617 15.4609C174.949 15.6237 175.252 15.8288 175.525 16.0762C175.805 16.3171 176.027 16.6328 176.189 17.0234C176.359 17.4141 176.443 17.9089 176.443 18.5078V19.8066C176.443 20.8809 176.15 21.7077 175.564 22.2871C174.979 22.86 174.135 23.1465 173.035 23.1465ZM181.043 23.0488C180.203 23.0488 179.594 22.8177 179.217 22.3555C178.846 21.8932 178.66 21.2292 178.66 20.3633V14.6211H177.625V12.8633H178.66V9.91406H180.516V12.8633H182V14.6211H180.516V20.3633C180.516 20.6562 180.577 20.8841 180.701 21.0469C180.831 21.2096 181.017 21.291 181.258 21.291H182V23.0488H181.043ZM186.395 23.1465C185.47 23.1465 184.751 22.8893 184.236 22.375C183.722 21.8607 183.465 21.138 183.465 20.207V15.5781C183.465 14.6536 183.722 13.9408 184.236 13.4395C184.751 12.9382 185.47 12.6875 186.395 12.6875C187.319 12.6875 188.032 12.9382 188.533 13.4395C189.035 13.9408 189.285 14.6536 189.285 15.5781V20.2363C189.285 21.1608 189.035 21.877 188.533 22.3848C188.032 22.8926 187.319 23.1465 186.395 23.1465ZM186.375 21.3398C186.707 21.3398 186.964 21.2389 187.146 21.0371C187.335 20.8288 187.43 20.5358 187.43 20.1582V15.6562C187.43 15.2917 187.335 15.0085 187.146 14.8066C186.964 14.5983 186.707 14.4941 186.375 14.4941C186.049 14.4941 185.792 14.5983 185.604 14.8066C185.415 15.0085 185.32 15.2917 185.32 15.6562V20.1582C185.32 20.5358 185.415 20.8288 185.604 21.0371C185.792 21.2389 186.049 21.3398 186.375 21.3398ZM191.238 23V12.8633H193.094V14.2856C193.385 13.8418 193.736 13.4816 194.148 13.2051C194.669 12.86 195.245 12.6875 195.877 12.6875V14.543H195.73H195.525C194.77 14.543 194.178 14.7285 193.748 15.0996C193.325 15.4707 193.107 15.9753 193.094 16.6133V23H191.238ZM200.184 23.1465C199.207 23.1465 198.449 22.8535 197.908 22.2676C197.368 21.6816 197.098 20.8548 197.098 19.7871V16.2422C197.098 15.1094 197.361 14.2337 197.889 13.6152C198.416 12.9967 199.155 12.6875 200.105 12.6875C201.076 12.6875 201.824 12.974 202.352 13.5469C202.879 14.1198 203.143 14.9303 203.143 15.9785V18.6543H198.875V19.8359C198.875 20.3307 198.989 20.7181 199.217 20.998C199.445 21.2715 199.767 21.4082 200.184 21.4082C200.568 21.4082 200.864 21.3073 201.072 21.1055C201.287 20.8971 201.395 20.6042 201.395 20.2266V20.1582H203.172V20.2266C203.172 21.151 202.911 21.8704 202.391 22.3848C201.87 22.8926 201.134 23.1465 200.184 23.1465ZM198.875 16.1348V17.1211H201.365V16.0176C201.365 15.4902 201.255 15.0833 201.033 14.7969C200.818 14.5104 200.509 14.3672 200.105 14.3672C199.715 14.3672 199.412 14.5202 199.197 14.8262C198.982 15.1322 198.875 15.5684 198.875 16.1348ZM131 0V31H133V0H131Z" fill="#FFEED3"/>
</svg>
