<svg width="34" height="48" viewBox="0 0 34 48" fill="none" xmlns="http://www.w3.org/2000/svg">
<path fill-rule="evenodd" clip-rule="evenodd" d="M25 3H25.9085H27.0175L27.6049 3.94073L32.0127 11H34V15H30.9037H3.10234H1.50204e-05H0V14.1885L1.50204e-05 14.1885V11H1.99427L6.4103 3.93945L6.99788 3H8.10595H21V0H25V3ZM27.297 11H6.71222L9.21402 7H24.7994L27.297 11ZM5.26983 17H2.99339L3.28647 19.2575L6.79177 46.2575L7.01799 48H8.77512H25.2913H27.0514L27.2751 46.2542L30.7345 19.2542L31.0233 17H28.7507H5.26983ZM10.5323 44L7.54626 21H26.4781L23.5312 44H10.5323Z" fill="black"/>
</svg>
