<svg width="78" height="88" fill="none" xmlns="http://www.w3.org/2000/svg"><g clip-path="url(#clip0_208_484)"><path fill-rule="evenodd" clip-rule="evenodd" d="M44 4.003h7.177l2.89 4H15.923l2.887-3.998L44 4.002zm19 4h-4L53.23.012v-.01h-.007L53.22 0l-.003.002H49L16.773.005v.006l-.01-.007-5.775 8H7v4h56v-4zm2.002 8h-60V20H5l15.3 56.004h-.008l1.093 4h27.222l.395-1.448v-.005l7.252-26.545 14.587-.002v-.01l7.59-27.99h-1.085v-.002l-17.59.003v.01l-.002-.001-14.204 51.99H24.444l-15.3-56h55.858v-4zm8.197 12l-10.387.002-5.465 20.001 10.428-.002L73.2 28.003zm-42.5 40h8.591l12.022-44h4.143l-13.114 48H27.647l-13.114-48h4.143l12.022 44zM49 84H21v4h28v-4z" fill="#FFEED3"/></g><defs><clipPath id="clip0_208_484"><path fill="#fff" d="M0 0h78v88H0z"/></clipPath></defs></svg>