<svg width="32" height="49" fill="none" xmlns="http://www.w3.org/2000/svg"><path fill-rule="evenodd" clip-rule="evenodd" d="M28 16.787c0 1.3-.674 3.733-2.162 7.12-1.416 3.22-3.334 6.801-5.298 10.187A203.771 203.771 0 0116 41.525a203.771 203.771 0 01-4.54-7.431c-1.964-3.386-3.882-6.966-5.298-10.188C4.675 20.52 4 18.088 4 16.787c0-6.627 5.373-12 12-12s12 5.373 12 12zm4 0c0 6.68-9.14 21.543-13.604 28.403C16.954 47.406 16 48.787 16 48.787s-.954-1.38-2.396-3.597C9.141 38.33 0 23.466 0 16.787c0-8.836 7.163-16 16-16s16 7.164 16 16zm-11 2a5 5 0 11-10 0 5 5 0 0110 0zm4 0a9 9 0 11-18 0 9 9 0 0118 0z" fill="#FFEED3"/></svg>