<svg width="141" height="89" fill="none" xmlns="http://www.w3.org/2000/svg"><path fill-rule="evenodd" clip-rule="evenodd" d="M46.177 4.002H39l-25.189.003-2.887 3.999h38.142l-2.889-4.002zM54 8.004h4v4H2v-4h3.988l5.775-8 .01.007V.005L44 .002h4.218L48.221 0l.002.002h.006v.01L54 8.003zm-53.998 8h60v4H4.144l15.3 56H40.55l14.204-51.99h.002v-.009l17.59-.003v.002h1.085l-7.59 27.99v.01l-14.586.002-7.253 26.544v.006l-.395 1.448H16.385l-1.093-4h.009L0 20h.002v-3.997zm57.81 12l10.387-.001-5.424 20.001-10.428.002 5.465-20.002zm-23.522 40H25.7l-12.022-44H9.534l13.114 48H37.34l13.115-48h-4.143l-12.022 44zm-18.284 16l27.992-.006.001 4-27.993.005v-4zm72.453-37.875c-2.637 0-4.676-.712-6.117-2.136-1.442-1.441-2.162-3.463-2.162-6.064V26.485c0-2.724.72-4.834 2.162-6.328 1.441-1.512 3.48-2.267 6.117-2.267 2.654 0 4.702.755 6.144 2.267 1.459 1.494 2.188 3.621 2.188 6.381v.211h-3.612v-.21c0-1.618-.405-2.875-1.213-3.771-.809-.897-1.951-1.345-3.428-1.345-1.441 0-2.566.44-3.375 1.318-.79.88-1.186 2.127-1.186 3.744V37.93c0 1.494.395 2.645 1.186 3.454.809.808 1.934 1.213 3.375 1.213 1.477 0 2.62-.413 3.428-1.24.808-.843 1.213-2.021 1.213-3.533v-.21h3.665v.21c0 2.637-.73 4.685-2.189 6.144-1.459 1.441-3.524 2.162-6.196 2.162zm24.337-.396v-3.01c-.51 1.01-1.169 1.794-1.978 2.351-1.002.703-2.25 1.055-3.744 1.055-2.127 0-3.779-.668-4.957-2.004-1.16-1.353-1.74-3.252-1.74-5.695V18.364h3.77V38.43c0 1.318.378 2.346 1.134 3.085.756.72 1.828 1.08 3.217 1.08 1.441 0 2.514-.35 3.217-1.054.721-.72 1.081-1.793 1.081-3.217v-19.96h3.77v27.37h-3.77zm9.571-27.369h3.797v3.274a6.917 6.917 0 012.136-2.43c1.23-.879 2.549-1.318 3.955-1.318 2.092 0 3.709.764 4.851 2.294 1.143 1.529 1.714 3.691 1.714 6.486v10.52c0 2.848-.597 5.054-1.793 6.619-1.177 1.547-2.856 2.32-5.036 2.32-1.459 0-2.76-.404-3.902-1.213a5.752 5.752 0 01-1.925-2.404V56.86h-3.797V18.364zm3.797 18.932V26.59c0-1.16.167-2.145.501-2.953.352-.809.861-1.424 1.529-1.846.668-.422 1.468-.633 2.4-.633 1.441 0 2.557.484 3.348 1.45.809.967 1.213 2.33 1.213 4.087V37.19c0 1.811-.404 3.208-1.213 4.193-.791.984-1.907 1.476-3.348 1.476-.932 0-1.732-.22-2.4-.659-.668-.44-1.177-1.072-1.529-1.898-.334-.826-.501-1.828-.501-3.006zM85.757 81.004c-1.759 0-3.144-.5-4.155-1.5-1.012-1.01-1.518-2.384-1.518-4.118v-.145h3.397v.145c0 .807.198 1.439.596 1.897.397.445.957.668 1.68.668.71 0 1.264-.217 1.662-.65.41-.434.614-1.03.614-1.789 0-.578-.144-1.024-.433-1.337-.277-.325-.65-.59-1.12-.795a20.46 20.46 0 00-1.5-.596 26.64 26.64 0 01-1.644-.686 6.9 6.9 0 01-1.5-.994 4.48 4.48 0 01-1.102-1.554c-.277-.638-.415-1.427-.415-2.366 0-1.723.47-3.072 1.409-4.047.952-.988 2.246-1.482 3.884-1.482 1.65 0 2.945.47 3.885 1.41.939.927 1.409 2.21 1.409 3.848v.108h-3.397v-.145c0-.674-.168-1.204-.506-1.59-.325-.385-.788-.578-1.39-.578-.59 0-1.055.211-1.392.633-.337.421-.506 1.012-.506 1.77 0 .566.133 1.018.398 1.355a2.79 2.79 0 001.03.777c.433.193.903.374 1.409.542.566.18 1.132.386 1.698.614a5.617 5.617 0 011.572.94c.482.397.867.927 1.156 1.59.301.662.452 1.523.452 2.583 0 1.71-.506 3.053-1.518 4.029s-2.397 1.463-4.155 1.463zm13.441-.18c-1.553 0-2.68-.428-3.378-1.283-.687-.855-1.03-2.084-1.03-3.685V65.232h-1.915V61.98h1.915v-5.456h3.433v5.456h2.746v3.252h-2.746v10.624c0 .541.114.963.343 1.264.24.301.584.452 1.03.452h1.373v3.252h-1.77zm9.901.18c-1.711 0-3.042-.475-3.993-1.427-.952-.951-1.427-2.288-1.427-4.01v-8.564c0-1.71.475-3.03 1.427-3.957.951-.927 2.282-1.39 3.993-1.39 1.71 0 3.029.463 3.956 1.39.928.928 1.391 2.247 1.391 3.957v8.618c0 1.71-.463 3.035-1.391 3.974-.927.94-2.246 1.41-3.956 1.41zm-.037-3.342c.615 0 1.091-.187 1.428-.56.349-.385.524-.927.524-1.626v-8.329c0-.674-.175-1.198-.524-1.571-.337-.386-.813-.578-1.428-.578-.602 0-1.077.192-1.427.578-.349.373-.524.897-.524 1.572v8.328c0 .699.175 1.24.524 1.626.35.373.825.56 1.427.56zm8.998 3.071V61.98h3.432v2.632a6.978 6.978 0 011.951-2 5.67 5.67 0 013.198-.957v3.433h-.65c-1.397 0-2.493.343-3.288 1.03-.783.686-1.187 1.62-1.211 2.8v11.815h-3.432zm16.548.271c-1.806 0-3.209-.542-4.209-1.626-1-1.084-1.5-2.613-1.5-4.588v-6.56c0-2.095.488-3.715 1.464-4.86.975-1.144 2.342-1.716 4.101-1.716 1.794 0 3.18.53 4.155 1.59.976 1.06 1.464 2.56 1.464 4.499v4.95h-7.895v2.186c0 .915.21 1.632.632 2.15.421.506 1.018.759 1.788.759.711 0 1.259-.187 1.644-.56.398-.386.597-.928.597-1.626v-.127h3.288v.127c0 1.71-.482 3.04-1.446 3.992-.963.94-2.324 1.41-4.083 1.41zm-2.42-12.971v1.824h4.606v-2.041c0-.976-.204-1.728-.614-2.258-.397-.53-.969-.795-1.716-.795-.723 0-1.283.283-1.68.849-.398.566-.596 1.373-.596 2.42z" fill="#FFEED3"/></svg>