<?xml version="1.0" encoding="utf-8"?><svg viewBox="0 0 204 89" xmlns="http://www.w3.org/2000/svg" xmlns:xlink="http://www.w3.org/1999/xlink"><style>:root>svg{display:none}:root>svg:target{display:block}</style><svg fill="none" viewBox="0 0 48 48" id="amount" xmlns="http://www.w3.org/2000/svg"><path fill-rule="evenodd" clip-rule="evenodd" d="M38.283 38A19.94 19.94 0 0 1 24 44C12.954 44 4 35.046 4 24S12.954 4 24 4a19.94 19.94 0 0 1 14.283 6h5.213C39.139 3.944 32.03 0 24 0 10.745 0 0 10.745 0 24s10.745 24 24 24c8.03 0 15.14-3.944 19.496-10h-5.213zM34 26v10h4V26h10v-4H38V12h-4v10H24v4h10zM18 15.111V34h-5v4h14v-4h-5V8h-3.794L12 14.827v5.946l6-6.6v.938z" fill="#000"/></svg><svg fill="none" viewBox="0 0 14 13" id="arrow-down" xmlns="http://www.w3.org/2000/svg"><path fill-rule="evenodd" clip-rule="evenodd" d="m0 0 5.447 10.782L6.567 13l1.12-2.218L13.136 0h-2.241L6.567 8.565 2.241 0H0z" fill="#000"/></svg><svg fill="none" viewBox="0 0 43 43" id="arrow-left-slider" xmlns="http://www.w3.org/2000/svg"><path fill-rule="evenodd" clip-rule="evenodd" d="M43 43 6.708 24.854 0 21.5l6.708-3.354L43 0v6.708L13.416 21.5 43 36.292V43z" fill="#000"/></svg><svg fill="none" viewBox="0 0 24 24" id="arrow-right" xmlns="http://www.w3.org/2000/svg"><path fill-rule="evenodd" clip-rule="evenodd" d="m0 24 19.528-9.764L24 12l-4.472-2.236L0 0v4.472L15.056 12 0 19.528V24z" fill="#000"/></svg><svg fill="none" viewBox="0 0 43 43" id="arrow-right-slider" xmlns="http://www.w3.org/2000/svg"><path fill-rule="evenodd" clip-rule="evenodd" d="m0 43 36.292-18.146L43 21.5l-6.708-3.354L0 0v6.708L29.584 21.5 0 36.292V43z" fill="#000"/></svg><svg fill="none" viewBox="0 0 48 24" id="arrows" xmlns="http://www.w3.org/2000/svg"><path fill-rule="evenodd" clip-rule="evenodd" d="m16 0-2 1.5-10.667 8L0 12l3.333 2.5L14 22.5l2 1.5v-4.451L8.65 14h30.7L32 19.549V24l2-1.5 10.667-8L48 12l-3.333-2.5L34 1.5 32 0v4.45L39.35 10H8.65L16 4.45V0z" fill="#000"/></svg><svg fill="none" viewBox="0 0 204 31" id="copyright" xmlns="http://www.w3.org/2000/svg"><path fill-rule="evenodd" clip-rule="evenodd" d="M15.5 29C22.956 29 29 22.956 29 15.5S22.956 2 15.5 2 2 8.044 2 15.5 8.044 29 15.5 29zm0 2C24.06 31 31 24.06 31 15.5 31 6.94 24.06 0 15.5 0 6.94 0 0 6.94 0 15.5 0 24.06 6.94 31 15.5 31zm-.555-10.854c-.976 0-1.732-.26-2.265-.78-.534-.528-.801-1.274-.801-2.237v-4.277c0-1.01.267-1.787.8-2.334.534-.554 1.29-.83 2.266-.83.983 0 1.742.276 2.276.83.54.553.81 1.337.81 2.353v.332h-1.836v-.332c0-.462-.107-.82-.322-1.074-.215-.254-.514-.381-.898-.381-.391 0-.697.127-.918.38-.215.248-.323.6-.323 1.056v4.277c0 .41.108.73.323.957.221.221.527.332.918.332.384 0 .683-.117.898-.352.221-.234.332-.56.332-.976v-.322h1.846v.322c0 .97-.27 1.722-.81 2.256-.541.534-1.306.8-2.296.8zm22.545 2.57c.495.287 1.09.43 1.787.43.703 0 1.3-.143 1.788-.43.494-.286.869-.7 1.123-1.24.26-.54.39-1.194.39-1.962v-.606h-1.875v.606c0 .58-.124 1.028-.371 1.347-.247.32-.599.479-1.055.479-.449 0-.8-.16-1.054-.479-.248-.319-.371-.768-.371-1.347v-7.217c0-.586.123-1.039.37-1.357.255-.32.606-.48 1.055-.48.306 0 .563.073.772.216.215.143.377.351.488.625.11.267.166.595.166.986v.606h1.875v-.606c0-.768-.13-1.422-.39-1.963a2.74 2.74 0 0 0-1.123-1.24c-.489-.286-1.084-.43-1.788-.43-.696 0-1.292.144-1.787.43-.488.286-.862.7-1.123 1.24-.26.54-.39 1.198-.39 1.973v7.217c0 .768.13 1.422.39 1.963.26.54.635.953 1.123 1.24zm7.52-.341c.514.514 1.233.771 2.158.771.924 0 1.637-.253 2.139-.761.5-.508.752-1.224.752-2.149v-4.658c0-.924-.251-1.637-.752-2.138-.502-.502-1.215-.752-2.139-.752-.925 0-1.644.25-2.158.752-.515.5-.772 1.214-.772 2.138v4.629c0 .931.257 1.654.772 2.168zm2.91-1.338c-.182.202-.44.303-.772.303-.325 0-.582-.101-.771-.303-.189-.208-.283-.501-.283-.879v-4.502c0-.364.094-.648.283-.85.189-.208.446-.312.771-.312.332 0 .59.104.772.313.189.201.283.485.283.85v4.501c0 .378-.094.67-.283.88zm4.092-8.174v14.258h1.855v-5.31c.151.364.36.66.625.886.358.3.775.45 1.25.45.755 0 1.338-.287 1.748-.86.41-.573.615-1.38.615-2.422V15.91c0-1.028-.198-1.823-.595-2.383-.39-.56-.95-.84-1.68-.84-.456 0-.879.16-1.27.479a2.696 2.696 0 0 0-.693.893v-1.196h-1.855zm1.855 3.086v3.887c0 .338.046.628.137.87.098.24.234.425.41.556.182.123.397.185.645.185.37 0 .66-.143.869-.43.215-.292.322-.7.322-1.22v-3.809c0-.501-.107-.892-.322-1.172-.209-.286-.498-.43-.87-.43a1.12 1.12 0 0 0-.644.186 1.2 1.2 0 0 0-.41.537 2.27 2.27 0 0 0-.137.84zm12.041-3.086h-1.875l-1.488 6.78-1.686-6.78h-1.875l2.852 10.012-.313 1.424c-.084.39-.254.683-.507.879-.248.195-.603.293-1.065.293h-.273v1.758h.273c.834 0 1.488-.157 1.963-.47.482-.305.798-.768.947-1.386l3.047-12.51zm1.28 0V23h1.855v-6.387c.013-.638.231-1.142.654-1.513.43-.371 1.022-.557 1.778-.557h.351v-1.855c-.631 0-1.207.172-1.728.517a3.769 3.769 0 0 0-1.055 1.08v-1.422h-1.856zm6.23-3.935v1.855h1.855V8.928h-1.855zm0 3.935V23h1.855V12.863h-1.855zm3.984-4.062V23h1.856v-6.992c0-.534.1-.931.303-1.192.208-.267.52-.4.937-.4.417 0 .726.127.928.38.208.255.312.642.312 1.163V23h1.856v-7.578c0-.886-.192-1.563-.576-2.031-.378-.47-.925-.704-1.641-.704-.508 0-.964.154-1.367.46-.297.224-.547.54-.752.947V8.8h-1.856zm9.15 13.554c.378.463.987.694 1.827.694h.957V21.29h-.742c-.241 0-.427-.081-.557-.244-.124-.163-.185-.39-.185-.684V14.62h1.484v-1.758h-1.484V9.914h-1.856v2.95h-1.035v1.757h1.035v5.742c0 .866.186 1.53.557 1.992zm8.253-.947V23h6.347v-1.758h-4.013l2.685-4.931c.456-.834.794-1.608 1.016-2.325.221-.716.332-1.35.332-1.904v-.02c0-1.126-.27-1.975-.811-2.548-.54-.573-1.344-.86-2.412-.86-1.061 0-1.865.342-2.412 1.026-.54.677-.81 1.68-.81 3.008v.039h1.904v-.04c0-.735.12-1.289.361-1.66.241-.377.6-.566 1.074-.566.397 0 .697.133.899.4.202.267.303.661.303 1.182v.03c0 .468-.108 1.012-.323 1.63-.214.619-.533 1.302-.957 2.05l-3.183 5.655zm8.955.889c.553.566 1.334.85 2.344.85 1.009 0 1.79-.284 2.343-.85.554-.567.83-1.367.83-2.402v-7.989c0-1.035-.276-1.836-.83-2.402-.553-.566-1.334-.85-2.343-.85-1.01 0-1.791.284-2.344.85-.554.566-.83 1.367-.83 2.402v7.989c0 1.035.276 1.835.83 2.402zm3.31-1.299c-.228.26-.55.39-.966.39-.417 0-.743-.13-.977-.39-.228-.26-.342-.628-.342-1.104v-7.988c0-.475.114-.843.342-1.103.234-.26.56-.39.977-.39.416 0 .738.13.966.39.235.26.352.628.352 1.103v7.989c0 .475-.117.843-.352 1.103zm4.043.41V23h6.348v-1.758h-4.014l2.686-4.931c.456-.834.794-1.608 1.015-2.325.222-.716.332-1.35.332-1.904v-.02c0-1.126-.27-1.975-.81-2.548s-1.344-.86-2.412-.86c-1.061 0-1.865.342-2.412 1.026-.541.677-.811 1.68-.811 3.008v.039h1.904v-.04c0-.735.121-1.289.362-1.66.241-.377.599-.566 1.074-.566.397 0 .697.133.898.4.202.267.303.661.303 1.182v.03c0 .468-.107 1.012-.322 1.63-.215.619-.534 1.302-.957 2.05l-3.184 5.655zm9.239 1.397c.488.228 1.08.341 1.777.341 1.016 0 1.8-.273 2.353-.82.56-.547.84-1.318.84-2.314V18c0-.58-.13-1.078-.39-1.494a2.18 2.18 0 0 0-1.075-.918c.391-.3.694-.625.909-.977.214-.358.322-.706.322-1.045v-1.992c0-.93-.251-1.65-.752-2.158s-1.208-.762-2.119-.762c-.996 0-1.768.254-2.315.762-.547.501-.82 1.217-.82 2.149v1.171h1.856v-1.133c0-.364.104-.644.312-.84.208-.201.498-.302.869-.302.352 0 .625.098.82.293.196.195.293.475.293.84v1.953c0 .377-.081.67-.244.879-.162.208-.387.312-.674.312h-.996v1.758h.996c.365 0 .648.13.85.39.202.261.303.632.303 1.114v1.963c0 .436-.117.775-.352 1.015-.234.241-.563.362-.986.362-.443 0-.791-.108-1.045-.322-.247-.222-.371-.528-.371-.918v-1.036h-1.865v1.172c0 .619.127 1.146.381 1.582.26.43.634.759 1.123.987zm20.925.341c-.696 0-1.292-.143-1.787-.43a2.818 2.818 0 0 1-1.123-1.24c-.26-.54-.39-1.194-.39-1.962v-7.217c0-.775.13-1.432.39-1.973.261-.54.635-.954 1.123-1.24.495-.286 1.091-.43 1.787-.43.703 0 1.299.144 1.787.43.495.286.87.7 1.124 1.24.26.54.39 1.195.39 1.963v.606h-1.875v-.606c0-.39-.055-.72-.166-.986a1.321 1.321 0 0 0-.488-.625c-.209-.143-.466-.215-.772-.215-.449 0-.8.16-1.054.479-.248.319-.371.77-.371 1.357v7.217c0 .58.123 1.028.371 1.347.254.32.605.479 1.054.479.456 0 .808-.16 1.055-.479.247-.319.371-.768.371-1.347v-.606h1.875v.606c0 .768-.13 1.422-.39 1.963a2.74 2.74 0 0 1-1.124 1.24c-.488.286-1.084.43-1.787.43zm9.297-.146v-1.192c-.167.391-.378.698-.635.919-.332.28-.745.42-1.24.42-.748 0-1.315-.241-1.699-.723-.378-.482-.566-1.188-.566-2.12v-7.44h1.855v7.363c0 .364.098.64.293.83.195.188.482.283.859.283.385 0 .668-.098.85-.293.189-.195.283-.482.283-.86v-7.324h1.856V23h-1.856zm4.004 4.121V12.863h1.856v1.197c.188-.373.419-.67.693-.894.391-.319.814-.479 1.269-.479.73 0 1.29.28 1.68.84.397.56.596 1.355.596 2.383v3.955c0 1.042-.205 1.85-.615 2.422-.411.573-.993.86-1.748.86-.476 0-.892-.15-1.25-.45a2.3 2.3 0 0 1-.625-.885v5.31h-1.856zm1.856-7.285v-3.887c0-.332.045-.612.136-.84a1.21 1.21 0 0 1 .41-.537c.183-.123.398-.185.645-.185.371 0 .661.143.869.43.215.28.322.67.322 1.171v3.809c0 .52-.107.928-.322 1.22-.208.287-.498.43-.869.43-.247 0-.462-.062-.645-.185a1.27 1.27 0 0 1-.41-.557 2.465 2.465 0 0 1-.136-.87zm6.191-2.803h5v1.758h-5v-1.758zm10.41 6.113c-.742 0-1.37-.127-1.885-.38a2.66 2.66 0 0 1-1.171-1.133c-.267-.502-.401-1.11-.401-1.826v-.703h1.856v.634c0 .515.136.912.41 1.192.28.273.677.41 1.191.41.501 0 .886-.137 1.153-.41.266-.28.4-.677.4-1.192v-1.24c0-.384-.098-.693-.293-.928a2.406 2.406 0 0 0-.742-.615c-.306-.17-.635-.332-.987-.488a15.76 15.76 0 0 1-1.054-.518 4.93 4.93 0 0 1-.957-.683 3.025 3.025 0 0 1-.703-1.006c-.176-.404-.264-.902-.264-1.494v-.82c0-1.062.296-1.876.889-2.442.592-.566 1.442-.85 2.548-.85 1.081 0 1.908.29 2.481.87.573.572.859 1.393.859 2.46v.743h-1.855v-.665c0-.52-.127-.917-.381-1.19-.254-.274-.622-.411-1.104-.411-.514 0-.908.13-1.181.39-.267.261-.401.632-.401 1.114v.889c0 .416.105.752.313 1.005.208.248.478.456.81.625.339.163.694.33 1.065.498.332.15.661.31.986.479.332.163.635.368.908.615.28.241.502.557.664.947.17.391.254.886.254 1.485v1.299c0 1.074-.293 1.9-.879 2.48-.585.573-1.429.86-2.529.86zm8.008-.097c-.84 0-1.449-.231-1.826-.694-.371-.462-.557-1.126-.557-1.992v-5.742h-1.035v-1.758h1.035V9.914h1.856v2.95H182v1.757h-1.484v5.742c0 .293.061.521.185.684.13.163.316.244.557.244H182v1.758h-.957zm5.352.098c-.925 0-1.644-.258-2.159-.772-.514-.514-.771-1.237-.771-2.168v-4.629c0-.924.257-1.637.771-2.138.515-.502 1.234-.752 2.159-.752.924 0 1.637.25 2.138.752.502.5.752 1.214.752 2.138v4.658c0 .925-.25 1.641-.752 2.149-.501.508-1.214.761-2.138.761zm-.02-1.807c.332 0 .589-.101.771-.303.189-.208.284-.501.284-.879v-4.502c0-.364-.095-.648-.284-.85-.182-.208-.439-.312-.771-.312-.326 0-.583.104-.771.313-.189.201-.284.485-.284.85v4.501c0 .378.095.67.284.88.188.2.445.302.771.302zm4.863 1.66V12.863h1.856v1.423a3.77 3.77 0 0 1 1.054-1.08 3.064 3.064 0 0 1 1.729-.518v1.855h-.352c-.755 0-1.347.186-1.777.557-.423.37-.641.875-.654 1.513V23h-1.856zm8.946.146c-.977 0-1.735-.293-2.276-.878-.54-.586-.81-1.413-.81-2.48v-3.546c0-1.133.263-2.008.791-2.627.527-.618 1.266-.928 2.216-.928.971 0 1.719.287 2.247.86.527.573.791 1.383.791 2.431v2.676h-4.268v1.182c0 .495.114.882.342 1.162.228.273.55.41.967.41.384 0 .68-.1.888-.303.215-.208.323-.5.323-.878v-.069h1.777v.069c0 .924-.261 1.643-.781 2.158-.521.508-1.257.761-2.207.761zm-1.309-7.011v.986h2.49v-1.103c0-.528-.11-.935-.332-1.221-.215-.287-.524-.43-.928-.43-.39 0-.693.153-.908.46-.215.305-.322.741-.322 1.308zM131 0v31h2V0h-2z" fill="#FFEED3"/></svg><svg fill="none" viewBox="0 0 48 48" id="cross" xmlns="http://www.w3.org/2000/svg"><path fill-rule="evenodd" clip-rule="evenodd" d="m24 26.828 21 21L47.828 45l-21-21L48 2.828 45.172 0 24 21.172 2.828 0 0 2.828 21.172 24l-21 21L3 47.828l21-21z" fill="#000"/></svg><svg fill="none" viewBox="0 0 34 48" id="cup" xmlns="http://www.w3.org/2000/svg"><path fill-rule="evenodd" clip-rule="evenodd" d="M25 3h2.017l.588.94L32.013 11H34v4H0v-4h1.994L6.41 3.94 6.998 3H21V0h4v3zm2.297 8H6.712l2.502-4h15.585l2.498 4zM5.27 17H2.993l.293 2.258 3.506 27L7.018 48h20.033l.224-1.746 3.46-27L31.023 17H5.27zm5.262 27L7.546 21h18.932l-2.947 23H10.532z" fill="#000"/></svg><svg fill="none" viewBox="0 0 48 29" id="email" xmlns="http://www.w3.org/2000/svg"><path fill-rule="evenodd" clip-rule="evenodd" d="M48 .213H0v28h48v-28zm-4 4.005L24.004 20.213 4 4.213v20h40V4.218zm-33.595-.005L24.004 15.09l13.6-10.878h-27.2z" fill="#FFEED3"/></svg><svg fill="none" viewBox="0 0 78 88" id="favicon" xmlns="http://www.w3.org/2000/svg"><g clip-path="url(#ka)"><path fill-rule="evenodd" clip-rule="evenodd" d="M44 4.003h7.177l2.89 4H15.923l2.887-3.998L44 4.002zm19 4h-4L53.23.012v-.01h-.007L53.22 0l-.003.002H49L16.773.005v.006l-.01-.007-5.775 8H7v4h56v-4zm2.002 8h-60V20H5l15.3 56.004h-.008l1.093 4h27.222l.395-1.448v-.005l7.252-26.545 14.587-.002v-.01l7.59-27.99h-1.085v-.002l-17.59.003v.01l-.002-.001-14.204 51.99H24.444l-15.3-56h55.858v-4zm8.197 12-10.387.002-5.465 20.001 10.428-.002L73.2 28.003zm-42.5 40h8.591l12.022-44h4.143l-13.114 48H27.647l-13.114-48h4.143l12.022 44zM49 84H21v4h28v-4z" fill="#FFEED3"/></g><defs><clipPath id="ka"><path fill="#fff" d="M0 0h78v88H0z"/></clipPath></defs></svg><svg fill="none" viewBox="0 0 32 49" id="geo" xmlns="http://www.w3.org/2000/svg"><path fill-rule="evenodd" clip-rule="evenodd" d="M28 16.787c0 1.3-.674 3.733-2.162 7.12-1.416 3.22-3.334 6.801-5.298 10.187A203.771 203.771 0 0 1 16 41.525a203.771 203.771 0 0 1-4.54-7.431c-1.964-3.386-3.882-6.966-5.298-10.188C4.675 20.52 4 18.088 4 16.787c0-6.627 5.373-12 12-12s12 5.373 12 12zm4 0c0 6.68-9.14 21.543-13.604 28.403C16.954 47.406 16 48.787 16 48.787s-.954-1.38-2.396-3.597C9.141 38.33 0 23.466 0 16.787c0-8.836 7.163-16 16-16s16 7.164 16 16zm-11 2a5 5 0 1 1-10 0 5 5 0 0 1 10 0zm4 0a9 9 0 1 1-18 0 9 9 0 0 1 18 0z" fill="#FFEED3"/></svg><svg fill="none" viewBox="0 0 78 88" id="home-icon" xmlns="http://www.w3.org/2000/svg"><g clip-path="url(#ma)"><path d="M14.531 24h40.97L42.34 72h-14.7L14.531 24z" fill="#114425"/><path fill-rule="evenodd" clip-rule="evenodd" d="M44 4.003h7.177l2.89 4H15.923l2.887-3.998L44 4.002zm19 4h-4L53.23.012v-.01h-.007L53.22 0l-.003.002H49L16.773.005v.006l-.01-.007-5.775 8H7v4h56v-4zm-57.998 8h60v4H9.144l15.3 56H45.55l14.204-51.989h.002v-.009l17.59-.003v.002h1.085l-7.59 27.99v.01l-14.586.002-7.253 26.544v.006l-.395 1.448H21.385l-1.093-4h.009L5 20h.002v-3.997zm62.773 32.001L73.2 28.003l-10.387.002-5.465 20.001 10.428-.002zM49 84H21v4h28v-4z" fill="#000"/></g><defs><clipPath id="ma"><path fill="#fff" d="M0 0h78v88H0z"/></clipPath></defs></svg><svg fill="none" viewBox="0 0 141 89" id="logo" xmlns="http://www.w3.org/2000/svg"><path fill-rule="evenodd" clip-rule="evenodd" d="M46.177 4.002H39l-25.189.003-2.887 3.999h38.142l-2.889-4.002zM54 8.004h4v4H2v-4h3.988l5.775-8 .01.007V.005L44 .002h4.218L48.221 0l.002.002h.006v.01L54 8.003zm-53.998 8h60v4H4.144l15.3 56H40.55l14.204-51.99h.002v-.009l17.59-.003v.002h1.085l-7.59 27.99v.01l-14.586.002-7.253 26.544v.006l-.395 1.448H16.385l-1.093-4h.009L0 20h.002v-3.997zm57.81 12 10.387-.001-5.424 20.001-10.428.002 5.465-20.002zm-23.522 40H25.7l-12.022-44H9.534l13.114 48H37.34l13.115-48h-4.143l-12.022 44zm-18.284 16 27.992-.006.001 4-27.993.005v-4zm72.453-37.875c-2.637 0-4.676-.712-6.117-2.136-1.442-1.441-2.162-3.463-2.162-6.064V26.485c0-2.724.72-4.834 2.162-6.328 1.441-1.512 3.48-2.267 6.117-2.267 2.654 0 4.702.755 6.144 2.267 1.459 1.494 2.188 3.621 2.188 6.381v.211h-3.612v-.21c0-1.618-.405-2.875-1.213-3.771-.809-.897-1.951-1.345-3.428-1.345-1.441 0-2.566.44-3.375 1.318-.79.88-1.186 2.127-1.186 3.744V37.93c0 1.494.395 2.645 1.186 3.454.809.808 1.934 1.213 3.375 1.213 1.477 0 2.62-.413 3.428-1.24.808-.843 1.213-2.021 1.213-3.533v-.21h3.665v.21c0 2.637-.73 4.685-2.189 6.144-1.459 1.441-3.524 2.162-6.196 2.162zm24.337-.396v-3.01c-.51 1.01-1.169 1.794-1.978 2.351-1.002.703-2.25 1.055-3.744 1.055-2.127 0-3.779-.668-4.957-2.004-1.16-1.353-1.74-3.252-1.74-5.695V18.364h3.77V38.43c0 1.318.378 2.346 1.134 3.085.756.72 1.828 1.08 3.217 1.08 1.441 0 2.514-.35 3.217-1.054.721-.72 1.081-1.793 1.081-3.217v-19.96h3.77v27.37h-3.77zm9.571-27.369h3.797v3.274a6.917 6.917 0 0 1 2.136-2.43c1.23-.879 2.549-1.318 3.955-1.318 2.092 0 3.709.764 4.851 2.294 1.143 1.529 1.714 3.691 1.714 6.486v10.52c0 2.848-.597 5.054-1.793 6.619-1.177 1.547-2.856 2.32-5.036 2.32-1.459 0-2.76-.404-3.902-1.213a5.752 5.752 0 0 1-1.925-2.404V56.86h-3.797V18.364zm3.797 18.932V26.59c0-1.16.167-2.145.501-2.953.352-.809.861-1.424 1.529-1.846.668-.422 1.468-.633 2.4-.633 1.441 0 2.557.484 3.348 1.45.809.967 1.213 2.33 1.213 4.087V37.19c0 1.811-.404 3.208-1.213 4.193-.791.984-1.907 1.476-3.348 1.476-.932 0-1.732-.22-2.4-.659-.668-.44-1.177-1.072-1.529-1.898-.334-.826-.501-1.828-.501-3.006zM85.757 81.004c-1.759 0-3.144-.5-4.155-1.5-1.012-1.01-1.518-2.384-1.518-4.118v-.145h3.397v.145c0 .807.198 1.439.596 1.897.397.445.957.668 1.68.668.71 0 1.264-.217 1.662-.65.41-.434.614-1.03.614-1.789 0-.578-.144-1.024-.433-1.337-.277-.325-.65-.59-1.12-.795a20.46 20.46 0 0 0-1.5-.596 26.64 26.64 0 0 1-1.644-.686 6.9 6.9 0 0 1-1.5-.994 4.48 4.48 0 0 1-1.102-1.554c-.277-.638-.415-1.427-.415-2.366 0-1.723.47-3.072 1.409-4.047.952-.988 2.246-1.482 3.884-1.482 1.65 0 2.945.47 3.885 1.41.939.927 1.409 2.21 1.409 3.848v.108h-3.397v-.145c0-.674-.168-1.204-.506-1.59-.325-.385-.788-.578-1.39-.578-.59 0-1.055.211-1.392.633-.337.421-.506 1.012-.506 1.77 0 .566.133 1.018.398 1.355a2.79 2.79 0 0 0 1.03.777c.433.193.903.374 1.409.542.566.18 1.132.386 1.698.614a5.617 5.617 0 0 1 1.572.94c.482.397.867.927 1.156 1.59.301.662.452 1.523.452 2.583 0 1.71-.506 3.053-1.518 4.029s-2.397 1.463-4.155 1.463zm13.441-.18c-1.553 0-2.68-.428-3.378-1.283-.687-.855-1.03-2.084-1.03-3.685V65.232h-1.915V61.98h1.915v-5.456h3.433v5.456h2.746v3.252h-2.746v10.624c0 .541.114.963.343 1.264.24.301.584.452 1.03.452h1.373v3.252h-1.77zm9.901.18c-1.711 0-3.042-.475-3.993-1.427-.952-.951-1.427-2.288-1.427-4.01v-8.564c0-1.71.475-3.03 1.427-3.957.951-.927 2.282-1.39 3.993-1.39 1.71 0 3.029.463 3.956 1.39.928.928 1.391 2.247 1.391 3.957v8.618c0 1.71-.463 3.035-1.391 3.974-.927.94-2.246 1.41-3.956 1.41zm-.037-3.342c.615 0 1.091-.187 1.428-.56.349-.385.524-.927.524-1.626v-8.329c0-.674-.175-1.198-.524-1.571-.337-.386-.813-.578-1.428-.578-.602 0-1.077.192-1.427.578-.349.373-.524.897-.524 1.572v8.328c0 .699.175 1.24.524 1.626.35.373.825.56 1.427.56zm8.998 3.071V61.98h3.432v2.632a6.978 6.978 0 0 1 1.951-2 5.67 5.67 0 0 1 3.198-.957v3.433h-.65c-1.397 0-2.493.343-3.288 1.03-.783.686-1.187 1.62-1.211 2.8v11.815h-3.432zm16.548.271c-1.806 0-3.209-.542-4.209-1.626-1-1.084-1.5-2.613-1.5-4.588v-6.56c0-2.095.488-3.715 1.464-4.86.975-1.144 2.342-1.716 4.101-1.716 1.794 0 3.18.53 4.155 1.59.976 1.06 1.464 2.56 1.464 4.499v4.95h-7.895v2.186c0 .915.21 1.632.632 2.15.421.506 1.018.759 1.788.759.711 0 1.259-.187 1.644-.56.398-.386.597-.928.597-1.626v-.127h3.288v.127c0 1.71-.482 3.04-1.446 3.992-.963.94-2.324 1.41-4.083 1.41zm-2.42-12.971v1.824h4.606v-2.041c0-.976-.204-1.728-.614-2.258-.397-.53-.969-.795-1.716-.795-.723 0-1.283.283-1.68.849-.398.566-.596 1.373-.596 2.42z" fill="#FFEED3"/></svg><svg fill="none" viewBox="0 0 47 46" id="phone" xmlns="http://www.w3.org/2000/svg"><path fill-rule="evenodd" clip-rule="evenodd" d="m7.108.787 1.41 1.42 9.463 9.535 1.41 1.42-1.42 1.409-5.39 5.35a19.97 19.97 0 0 0 4.277 7.302h.008a19.962 19.962 0 0 0 8.123 5.343 19.984 19.984 0 0 0 2.241.639l4.802-5.884 1.264-1.55 1.55 1.265 10.408 8.495 1.55 1.265-1.265 1.55c-2.76 3.38-4.88 5.13-6.966 5.985-1.547.634-3.089.726-4.336.801h-.007l-.98.038v-.002a31.5 31.5 0 0 1-12.851-2.004A31.5 31.5 0 0 1 .09 15.09H.088l-.058-.98v-.006c-.046-1.249-.104-2.792.377-4.393.649-2.16 2.184-4.44 5.282-7.514l1.42-1.41zm14.704 38.635A27.502 27.502 0 0 1 7.675 27.32h-.01A27.503 27.503 0 0 1 4.12 15.51l-.043-.405h-.005l-.004-1.167h-.001l.046-1.881.01-.75.004-.015h.005v-.002h-.005c.03-.139.067-.28.112-.43.3-.995 1.014-2.328 2.882-4.382l6.613 6.663-2.086 2.07-.002-.02-3.542 3.45a23.967 23.967 0 0 0 14.965 17.482 23.966 23.966 0 0 0 5.87 1.414l3.09-3.86h-.021l1.859-2.277 7.273 5.936c-1.863 2.058-3.12 2.9-4.083 3.294a5.764 5.764 0 0 1-.416.152v-.004h-.003v.005l-.014.005-.745.083-1.868.228-1.162.108v-.005l-.409-.003a27.478 27.478 0 0 1-7.48-.793v-.002a27.494 27.494 0 0 1-3.147-.982z" fill="#FFEED3"/></svg><svg fill="none" viewBox="0 0 48 49" id="time" xmlns="http://www.w3.org/2000/svg"><path fill-rule="evenodd" clip-rule="evenodd" d="M24 44.213c11.046 0 20-8.954 20-20s-8.954-20-20-20-20 8.954-20 20 8.954 20 20 20zm0 4c13.255 0 24-10.745 24-24s-10.745-24-24-24-24 10.745-24 24 10.745 24 24 24zm-2-22v-18h4v14h14v4H22z" fill="#FFEED3"/></svg><svg fill="none" viewBox="0 0 63 52" id="upload" xmlns="http://www.w3.org/2000/svg"><path fill-rule="evenodd" clip-rule="evenodd" d="M22.83 19.399a10.695 10.695 0 0 1-1.062-4.662C21.768 8.807 26.575 4 32.505 4c5.049 0 9.284 3.485 10.43 8.18.37-.12.747-.225 1.131-.31a12.463 12.463 0 0 1 3.008-.275c6.825.202 12.148 5.852 11.95 12.563-.148 4.985-3.301 9.204-7.71 10.963v4.226c6.594-1.92 11.495-7.878 11.708-15.07.264-8.946-6.823-16.414-15.83-16.68a16.61 16.61 0 0 0-1.77.041A14.731 14.731 0 0 0 32.505 0C24.38 0 17.79 6.575 17.768 14.694a12.298 12.298 0 0 0-9.202-.678C2.13 16.065-1.454 22.856.561 29.183c1.957 6.148 8.48 9.597 14.753 7.907v-3.55l-3.428-.021v-.002c-3.405-.083-6.467-2.262-7.514-5.548-1.325-4.161 1.016-8.744 5.408-10.142 3.754-1.195 7.629.373 9.504 3.452a10.16 10.16 0 0 1 3.25-1.794c.098-.03.197-.059.296-.086zm7.623 3.76L33.037 20l2.583 3.159L44.487 34l3.272 4h-5.197L35 28.473V52h-4V28.566L23.51 38h-5.196l3.272-4 8.867-10.841z" fill="#000"/></svg><svg fill="none" viewBox="0 0 40 48" id="user" xmlns="http://www.w3.org/2000/svg"><path fill-rule="evenodd" clip-rule="evenodd" d="M29 13a9 9 0 1 1-18 0 9 9 0 0 1 18 0zm4 0c0 7.18-5.82 13-13 13S7 20.18 7 13 12.82 0 20 0s13 5.82 13 13zm3 34v1h4v-1c0-11.046-8.954-20-20-20S0 35.954 0 47v1h4v-1c0-8.837 7.163-16 16-16s16 7.163 16 16z" fill="#000"/></svg></svg>